<svg width="300" height="300" viewBox="0 0 300 300" fill="none" xmlns="http://www.w3.org/2000/svg">
<rect width="300" height="300" rx="150" fill="#1E1B4B"/>
<path d="M150 250C136.167 250 123.167 247.375 111 242.125C98.8333 236.875 88.25 229.75 79.25 220.75C70.25 211.75 63.125 201.167 57.875 189C52.625 176.833 50 163.833 50 150C50 136.167 52.625 123.167 57.875 111C63.125 98.8333 70.25 88.25 79.25 79.25C88.25 70.25 98.8333 63.125 111 57.875C123.167 52.625 136.167 50 150 50C163.833 50 176.833 52.625 189 57.875C201.167 63.125 211.75 70.25 220.75 79.25C229.75 88.25 236.875 98.8333 242.125 111C247.375 123.167 250 136.167 250 150C250 163.833 247.375 176.833 242.125 189C236.875 201.167 229.75 211.75 220.75 220.75C211.75 229.75 201.167 236.875 189 242.125C176.833 247.375 163.833 250 150 250ZM150 230C159.333 230 168.125 228.542 176.375 225.625C184.625 222.708 192.167 218.583 199 213.25L184.75 199C179.917 202.5 174.542 205.208 168.625 207.125C162.708 209.042 156.5 210 150 210C133.333 210 119.167 204.167 107.5 192.5C95.8333 180.833 90 166.667 90 150C90 133.333 95.8333 119.167 107.5 107.5C119.167 95.8333 133.333 90 150 90C166.667 90 180.833 95.8333 192.5 107.5C204.167 119.167 210 133.333 210 150C210 156.5 209 162.75 207 168.75C205 174.75 202.25 180.167 198.75 185L213 199.25C218.333 192.417 222.5 184.833 225.5 176.5C228.5 168.167 230 159.333 230 150C230 127.667 222.25 108.75 206.75 93.25C191.25 77.75 172.333 70 150 70C127.667 70 108.75 77.75 93.25 93.25C77.75 108.75 70 127.667 70 150C70 172.333 77.75 191.25 93.25 206.75C108.75 222.25 127.667 230 150 230ZM150 190C153.667 190 157.208 189.542 160.625 188.625C164.042 187.708 167.25 186.333 170.25 184.5L155 169.25C154.167 169.583 153.333 169.792 152.5 169.875C151.667 169.958 150.833 170 150 170C144.5 170 139.792 168.042 135.875 164.125C131.958 160.208 130 155.5 130 150C130 144.5 131.958 139.792 135.875 135.875C139.792 131.958 144.5 130 150 130C155.5 130 160.208 131.958 164.125 135.875C168.042 139.792 170 144.5 170 150C170 151 169.958 151.958 169.875 152.875C169.792 153.792 169.583 154.667 169.25 155.5L184.25 170.5C186.083 167.5 187.5 164.292 188.5 160.875C189.5 157.458 190 153.833 190 150C190 139 186.083 129.583 178.25 121.75C170.417 113.917 161 110 150 110C139 110 129.583 113.917 121.75 121.75C113.917 129.583 110 139 110 150C110 161 113.917 170.417 121.75 178.25C129.583 186.083 139 190 150 190Z" fill="#EEF2FF"/>
</svg>
