<svg width="494" height="104" viewBox="0 0 494 104" fill="none" xmlns="http://www.w3.org/2000/svg">
<path d="M52.0127 104C44.8176 104 38.056 102.635 31.7278 99.905C25.3995 97.175 19.8949 93.47 15.2137 88.79C10.5326 84.11 6.82667 78.6067 4.096 72.28C1.36533 65.9533 0 59.1933 0 52C0 44.8067 1.36533 38.0467 4.096 31.72C6.82667 25.3933 10.5326 19.89 15.2137 15.21C19.8949 10.53 25.3995 6.825 31.7278 4.095C38.056 1.365 44.8176 0 52.0127 0C59.2078 0 65.9695 1.365 72.2977 4.095C78.6259 6.825 84.1305 10.53 88.8117 15.21C93.4928 19.89 97.1988 25.3933 99.9294 31.72C102.66 38.0467 104.025 44.8067 104.025 52C104.025 59.1933 102.66 65.9533 99.9294 72.28C97.1988 78.6067 93.4928 84.11 88.8117 88.79C84.1305 93.47 78.6259 97.175 72.2977 99.905C65.9695 102.635 59.2078 104 52.0127 104ZM52.0127 93.6C56.8672 93.6 61.44 92.8417 65.7311 91.325C70.0221 89.8083 73.9447 87.6633 77.4989 84.89L70.0871 77.48C67.5732 79.3 64.7775 80.7083 61.7001 81.705C58.6227 82.7017 55.3935 83.2 52.0127 83.2C43.3439 83.2 35.9755 80.1667 29.9073 74.1C23.8392 68.0333 20.8051 60.6667 20.8051 52C20.8051 43.3333 23.8392 35.9667 29.9073 29.9C35.9755 23.8333 43.3439 20.8 52.0127 20.8C60.6815 20.8 68.05 23.8333 74.1181 29.9C80.1863 35.9667 83.2203 43.3333 83.2203 52C83.2203 55.38 82.7002 58.63 81.66 61.75C80.6197 64.87 79.1894 67.6867 77.3689 70.2L84.7807 77.61C87.5547 74.0567 89.7219 70.1133 91.2823 65.78C92.8427 61.4467 93.6229 56.8533 93.6229 52C93.6229 40.3867 89.5919 30.55 81.5299 22.49C73.4679 14.43 63.6289 10.4 52.0127 10.4C40.3965 10.4 30.5575 14.43 22.4955 22.49C14.4335 30.55 10.4025 40.3867 10.4025 52C10.4025 63.6133 14.4335 73.45 22.4955 81.51C30.5575 89.57 40.3965 93.6 52.0127 93.6ZM52.0127 72.8C53.9198 72.8 55.762 72.5617 57.5391 72.085C59.3162 71.6083 60.9849 70.8933 62.5453 69.94L54.6133 62.01C54.1799 62.1833 53.7465 62.2917 53.313 62.335C52.8796 62.3783 52.4462 62.4 52.0127 62.4C49.152 62.4 46.7031 61.3817 44.6659 59.345C42.6287 57.3083 41.6102 54.86 41.6102 52C41.6102 49.14 42.6287 46.6917 44.6659 44.655C46.7031 42.6183 49.152 41.6 52.0127 41.6C54.8734 41.6 57.3223 42.6183 59.3595 44.655C61.3967 46.6917 62.4152 49.14 62.4152 52C62.4152 52.52 62.3936 53.0183 62.3502 53.495C62.3069 53.9717 62.1985 54.4267 62.0252 54.86L69.8271 62.66C70.7806 61.1 71.5175 59.4317 72.0376 57.655C72.5577 55.8783 72.8178 53.9933 72.8178 52C72.8178 46.28 70.7806 41.3833 66.7063 37.31C62.632 33.2367 57.7341 31.2 52.0127 31.2C46.2913 31.2 41.3934 33.2367 37.3191 37.31C33.2448 41.3833 31.2076 46.28 31.2076 52C31.2076 57.72 33.2448 62.6167 37.3191 66.69C41.3934 70.7633 46.2913 72.8 52.0127 72.8Z" fill="#1E1B4B"/>
<path d="M179.956 25.456L162.024 76H146.612L128.679 25.456H141.787L154.318 63.616L166.921 25.456H179.956Z" fill="#1E1B4B"/>
<path d="M181.79 55.84C181.79 51.712 182.558 48.088 184.095 44.968C185.679 41.848 187.816 39.448 190.504 37.768C193.193 36.088 196.194 35.248 199.507 35.248C202.339 35.248 204.812 35.824 206.924 36.976C209.085 38.128 210.741 39.64 211.894 41.512V35.824H224.209V76H211.894V70.312C210.693 72.184 209.013 73.696 206.852 74.848C204.74 76 202.267 76.576 199.434 76.576C196.17 76.576 193.193 75.736 190.504 74.056C187.816 72.328 185.679 69.904 184.095 66.784C182.558 63.616 181.79 59.968 181.79 55.84ZM211.894 55.912C211.894 52.84 211.029 50.416 209.301 48.64C207.62 46.864 205.556 45.976 203.107 45.976C200.659 45.976 198.57 46.864 196.842 48.64C195.161 50.368 194.321 52.768 194.321 55.84C194.321 58.912 195.161 61.36 196.842 63.184C198.57 64.96 200.659 65.848 203.107 65.848C205.556 65.848 207.62 64.96 209.301 63.184C211.029 61.408 211.894 58.984 211.894 55.912Z" fill="#1E1B4B"/>
<path d="M244.569 22.72V76H232.254V22.72H244.569Z" fill="#1E1B4B"/>
<path d="M270.922 76.576C266.985 76.576 263.432 75.736 260.263 74.056C257.142 72.376 254.67 69.976 252.845 66.856C251.069 63.736 250.18 60.088 250.18 55.912C250.18 51.784 251.093 48.16 252.917 45.04C254.742 41.872 257.238 39.448 260.407 37.768C263.576 36.088 267.129 35.248 271.066 35.248C275.002 35.248 278.555 36.088 281.724 37.768C284.893 39.448 287.39 41.872 289.214 45.04C291.038 48.16 291.951 51.784 291.951 55.912C291.951 60.04 291.014 63.688 289.142 66.856C287.318 69.976 284.797 72.376 281.58 74.056C278.411 75.736 274.858 76.576 270.922 76.576ZM270.922 65.92C273.274 65.92 275.267 65.056 276.899 63.328C278.579 61.6 279.42 59.128 279.42 55.912C279.42 52.696 278.603 50.224 276.971 48.496C275.387 46.768 273.418 45.904 271.066 45.904C268.665 45.904 266.672 46.768 265.088 48.496C263.504 50.176 262.712 52.648 262.712 55.912C262.712 59.128 263.48 61.6 265.016 63.328C266.6 65.056 268.569 65.92 270.922 65.92Z" fill="#1E1B4B"/>
<path d="M309.935 42.52C311.375 40.312 313.176 38.584 315.336 37.336C317.497 36.04 319.897 35.392 322.538 35.392V48.424H319.153C316.08 48.424 313.776 49.096 312.239 50.44C310.703 51.736 309.935 54.04 309.935 57.352V76H297.62V35.824H309.935V42.52Z" fill="#1E1B4B"/>
<path d="M364.865 55.192C364.865 56.68 364.769 58.024 364.577 59.224H334.258C334.498 62.392 335.674 64.936 337.786 66.856C339.899 68.776 342.492 69.736 345.564 69.736C349.981 69.736 353.102 67.888 354.927 64.192H363.785C362.585 67.84 360.4 70.84 357.231 73.192C354.11 75.496 350.222 76.648 345.564 76.648C341.771 76.648 338.363 75.808 335.338 74.128C332.361 72.4 330.009 70 328.28 66.928C326.6 63.808 325.76 60.208 325.76 56.128C325.76 52.048 326.576 48.472 328.208 45.4C329.889 42.28 332.217 39.88 335.194 38.2C338.219 36.52 341.675 35.68 345.564 35.68C349.309 35.68 352.646 36.496 355.575 38.128C358.504 39.76 360.784 42.064 362.417 45.04C364.049 47.968 364.865 51.352 364.865 55.192ZM356.295 52.6C356.247 49.576 355.167 47.152 353.054 45.328C350.942 43.504 348.325 42.592 345.204 42.592C342.372 42.592 339.947 43.504 337.931 45.328C335.914 47.104 334.714 49.528 334.33 52.6H356.295Z" fill="#1E1B4B"/>
<path d="M369.344 55.984C369.344 52 370.16 48.472 371.792 45.4C373.473 42.328 375.729 39.952 378.562 38.272C381.443 36.544 384.611 35.68 388.068 35.68C391.189 35.68 393.902 36.304 396.206 37.552C398.559 38.752 400.431 40.264 401.824 42.088V36.328H410.106V76H401.824V70.096C400.431 71.968 398.535 73.528 396.134 74.776C393.734 76.024 390.997 76.648 387.924 76.648C384.515 76.648 381.395 75.784 378.562 74.056C375.729 72.28 373.473 69.832 371.792 66.712C370.16 63.544 369.344 59.968 369.344 55.984ZM401.824 56.128C401.824 53.392 401.248 51.016 400.095 49C398.991 46.984 397.527 45.448 395.702 44.392C393.878 43.336 391.909 42.808 389.797 42.808C387.684 42.808 385.716 43.336 383.891 44.392C382.067 45.4 380.578 46.912 379.426 48.928C378.322 50.896 377.77 53.248 377.77 55.984C377.77 58.72 378.322 61.12 379.426 63.184C380.578 65.248 382.067 66.832 383.891 67.936C385.764 68.992 387.732 69.52 389.797 69.52C391.909 69.52 393.878 68.992 395.702 67.936C397.527 66.88 398.991 65.344 400.095 63.328C401.248 61.264 401.824 58.864 401.824 56.128Z" fill="#1E1B4B"/>
<path d="M434.428 76.648C431.308 76.648 428.499 76.096 426.002 74.992C423.554 73.84 421.609 72.304 420.169 70.384C418.729 68.416 417.96 66.232 417.864 63.832H426.362C426.507 65.512 427.299 66.928 428.739 68.08C430.227 69.184 432.076 69.736 434.284 69.736C436.589 69.736 438.365 69.304 439.614 68.44C440.91 67.528 441.558 66.376 441.558 64.984C441.558 63.496 440.838 62.392 439.398 61.672C438.005 60.952 435.773 60.16 432.7 59.296C429.723 58.48 427.299 57.688 425.426 56.92C423.554 56.152 421.921 54.976 420.529 53.392C419.185 51.808 418.513 49.72 418.513 47.128C418.513 45.016 419.137 43.096 420.385 41.368C421.633 39.592 423.41 38.2 425.714 37.192C428.067 36.184 430.756 35.68 433.78 35.68C438.293 35.68 441.918 36.832 444.655 39.136C447.44 41.392 448.928 44.488 449.12 48.424H440.91C440.766 46.648 440.046 45.232 438.75 44.176C437.453 43.12 435.701 42.592 433.492 42.592C431.332 42.592 429.675 43 428.523 43.816C427.371 44.632 426.795 45.712 426.795 47.056C426.795 48.112 427.179 49 427.947 49.72C428.715 50.44 429.651 51.016 430.756 51.448C431.86 51.832 433.492 52.336 435.653 52.96C438.533 53.728 440.886 54.52 442.71 55.336C444.583 56.104 446.191 57.256 447.536 58.792C448.88 60.328 449.576 62.368 449.624 64.912C449.624 67.168 449 69.184 447.752 70.96C446.503 72.736 444.727 74.128 442.422 75.136C440.166 76.144 437.501 76.648 434.428 76.648Z" fill="#1E1B4B"/>
<path d="M494 55.192C494 56.68 493.904 58.024 493.712 59.224H463.393C463.633 62.392 464.809 64.936 466.921 66.856C469.034 68.776 471.627 69.736 474.699 69.736C479.116 69.736 482.237 67.888 484.062 64.192H492.92C491.719 67.84 489.535 70.84 486.366 73.192C483.245 75.496 479.356 76.648 474.699 76.648C470.906 76.648 467.497 75.808 464.473 74.128C461.496 72.4 459.143 70 457.415 66.928C455.735 63.808 454.894 60.208 454.894 56.128C454.894 52.048 455.711 48.472 457.343 45.4C459.023 42.28 461.352 39.88 464.329 38.2C467.353 36.52 470.81 35.68 474.699 35.68C478.444 35.68 481.781 36.496 484.71 38.128C487.638 39.76 489.919 42.064 491.551 45.04C493.184 47.968 494 51.352 494 55.192ZM485.43 52.6C485.382 49.576 484.302 47.152 482.189 45.328C480.077 43.504 477.46 42.592 474.339 42.592C471.506 42.592 469.082 43.504 467.065 45.328C465.049 47.104 463.849 49.528 463.465 52.6H485.43Z" fill="#1E1B4B"/>
</svg>
